<?xml version="1.0" encoding="utf-8"?>
<!-- Generator: Adobe Illustrator 25.4.1, SVG Export Plug-In . SVG Version: 6.00 Build 0)  -->
<svg version="1.1" id="Calque_1" xmlns="http://www.w3.org/2000/svg" xmlns:xlink="http://www.w3.org/1999/xlink" x="0px" y="0px"
	 viewBox="0 0 610 297" style="enable-background:new 0 0 610 297;" xml:space="preserve">
<style type="text/css">
	.st0{clip-path:url(#SVGID_00000066511375157412860010000012471688333996850092_);}
	.st1{fill:#E83C51;}
	.st2{fill:#3658A4;}
	.st3{clip-path:url(#SVGID_00000144303239046603669790000010419691304435563429_);}
</style>
<g>
	<defs>
		<rect id="SVGID_1_" x="0.63" y="0.31" width="608.74" height="296.38"/>
	</defs>
	<clipPath id="SVGID_00000084523514084906795200000005578939082249600947_">
		<use xlink:href="#SVGID_1_"  style="overflow:visible;"/>
	</clipPath>
	<g style="clip-path:url(#SVGID_00000084523514084906795200000005578939082249600947_);">
		<path class="st1" d="M609.37,148.5c0,5.77-0.33,11.45-0.97,17.05c-7.68,66.98-60,120.39-126.46,129.7
			c-6.77,0.95-13.7,1.45-20.72,1.45c-11.08,0-21.87-1.21-32.25-3.52c-19.04-4.24-36.72-12.13-52.24-22.92l24.58-61.38l17.71-44.21
			h61.41l-27.44,68.51c2.71,0.27,5.45,0.39,8.23,0.39c7.15,0,14.09-0.89,20.72-2.55c31.75-7.95,56.43-33.75,62.73-66.13
			c1.03-5.3,1.58-10.79,1.58-16.39c0-14.76-3.76-28.63-10.35-40.72c-5.56-10.17-13.14-19.09-22.19-26.22
			c-14.45-11.36-32.69-18.14-52.5-18.14c-0.56,0-1.11,0.01-1.67,0.02l24.59-61.39c19.36,3.01,37.48,9.77,53.59,19.52
			c31.87,19.27,55.91,50.21,66.17,86.9C607.47,121.2,609.37,134.63,609.37,148.5z"/>
		<path class="st2" d="M360.89,0.31h61.41L303.59,296.69h-61.41L360.89,0.31z"/>
	</g>
</g>
<g>
	<defs>
		<rect id="SVGID_00000175312733738500981040000012112161377796674984_" x="0.63" y="0.31" width="608.74" height="296.38"/>
	</defs>
	<clipPath id="SVGID_00000137839821496214560160000003728217092200926617_">
		<use xlink:href="#SVGID_00000175312733738500981040000012112161377796674984_"  style="overflow:visible;"/>
	</clipPath>
	<g style="clip-path:url(#SVGID_00000137839821496214560160000003728217092200926617_);">
		<path class="st2" d="M238.02,0.31h61.41l-118.7,296.38h-61.41L238.02,0.31z"/>
		<path class="st2" d="M62.04,0.31H0.63l118.7,296.38h61.42L62.04,0.31z"/>
		<path class="st2" d="M360.89,0.31h61.41L303.59,296.69h-61.41L360.89,0.31z"/>
	</g>
</g>
</svg>
