<svg width="898" height="437" viewBox="0 0 898 437" fill="none" xmlns="http://www.w3.org/2000/svg">
<g clip-path="url(#clip0_701_48)">
<path d="M897.542 218.5C897.542 227.009 897.05 235.387 896.116 243.634C884.789 342.399 807.65 421.146 709.661 434.869C699.678 436.262 689.466 437 679.107 437C662.764 437 646.864 435.213 631.555 431.803C603.476 425.556 577.413 413.915 554.53 398.012L590.772 307.51L616.884 242.322H707.432L666.977 343.334C670.976 343.727 675.009 343.908 679.107 343.908C689.647 343.908 699.875 342.596 709.661 340.153C756.475 328.43 792.865 290.393 802.159 242.65C803.683 234.83 804.487 226.747 804.487 218.484C804.487 196.727 798.946 176.266 789.226 158.444C781.03 143.442 769.851 130.293 756.508 119.784C735.199 103.028 708.317 93.0433 679.107 93.0433C678.287 93.0433 677.468 93.0597 676.648 93.076L712.906 2.55768C741.444 7.0008 768.163 16.9691 791.914 31.3314C838.909 59.7444 874.348 105.356 889.477 159.461C894.739 178.25 897.542 198.055 897.542 218.5Z" fill="#FF344D"/>
<path d="M350.011 0H440.559L265.545 437H174.997L350.011 0Z" fill="#1B53F5"/>
<path d="M90.5476 0H0L175.014 437H265.578L90.5476 0Z" fill="#1B53F5"/>
<path d="M531.172 0H621.72L446.689 437H356.142L531.172 0Z" fill="#1B53F5"/>
</g>
<defs>
<clipPath id="clip0_701_48">
<rect width="897.542" height="437" fill="white"/>
</clipPath>
</defs>
</svg>
